<svg id="visual" viewBox="0 0 900 600" width="900" height="600" xmlns="http://www.w3.org/2000/svg" xmlns:xlink="http://www.w3.org/1999/xlink" version="1.1"><rect x="0" y="0" width="900" height="600" fill="#F49E12"></rect><path d="M0 101L21.5 102.3C43 103.7 86 106.3 128.8 124.8C171.7 143.3 214.3 177.7 257.2 180.2C300 182.7 343 153.3 385.8 147.8C428.7 142.3 471.3 160.7 514.2 162C557 163.3 600 147.7 642.8 139C685.7 130.3 728.3 128.7 771.2 135.2C814 141.7 857 156.3 878.5 163.7L900 171L900 601L878.5 601C857 601 814 601 771.2 601C728.3 601 685.7 601 642.8 601C600 601 557 601 514.2 601C471.3 601 428.7 601 385.8 601C343 601 300 601 257.2 601C214.3 601 171.7 601 128.8 601C86 601 43 601 21.5 601L0 601Z" fill="#f49e12"></path><path d="M0 300L21.5 296C43 292 86 284 128.8 268.8C171.7 253.7 214.3 231.3 257.2 232C300 232.7 343 256.3 385.8 262.3C428.7 268.3 471.3 256.7 514.2 259.7C557 262.7 600 280.3 642.8 279C685.7 277.7 728.3 257.3 771.2 256C814 254.7 857 272.3 878.5 281.2L900 290L900 601L878.5 601C857 601 814 601 771.2 601C728.3 601 685.7 601 642.8 601C600 601 557 601 514.2 601C471.3 601 428.7 601 385.8 601C343 601 300 601 257.2 601C214.3 601 171.7 601 128.8 601C86 601 43 601 21.5 601L0 601Z" fill="#c3a600"></path><path d="M0 319L21.5 328.8C43 338.7 86 358.3 128.8 367.8C171.7 377.3 214.3 376.7 257.2 376.8C300 377 343 378 385.8 363C428.7 348 471.3 317 514.2 300.7C557 284.3 600 282.7 642.8 289.8C685.7 297 728.3 313 771.2 323.7C814 334.3 857 339.7 878.5 342.3L900 345L900 601L878.5 601C857 601 814 601 771.2 601C728.3 601 685.7 601 642.8 601C600 601 557 601 514.2 601C471.3 601 428.7 601 385.8 601C343 601 300 601 257.2 601C214.3 601 171.7 601 128.8 601C86 601 43 601 21.5 601L0 601Z" fill="#93a821"></path><path d="M0 410L21.5 410.3C43 410.7 86 411.3 128.8 414.3C171.7 417.3 214.3 422.7 257.2 428C300 433.3 343 438.7 385.8 436.3C428.7 434 471.3 424 514.2 419.8C557 415.7 600 417.3 642.8 410C685.7 402.7 728.3 386.3 771.2 389.7C814 393 857 416 878.5 427.5L900 439L900 601L878.5 601C857 601 814 601 771.2 601C728.3 601 685.7 601 642.8 601C600 601 557 601 514.2 601C471.3 601 428.7 601 385.8 601C343 601 300 601 257.2 601C214.3 601 171.7 601 128.8 601C86 601 43 601 21.5 601L0 601Z" fill="#65a540"></path><path d="M0 513L21.5 516.2C43 519.3 86 525.7 128.8 521.3C171.7 517 214.3 502 257.2 502.3C300 502.7 343 518.3 385.8 526.7C428.7 535 471.3 536 514.2 534.8C557 533.7 600 530.3 642.8 524.8C685.7 519.3 728.3 511.7 771.2 507.8C814 504 857 504 878.5 504L900 504L900 601L878.5 601C857 601 814 601 771.2 601C728.3 601 685.7 601 642.8 601C600 601 557 601 514.2 601C471.3 601 428.7 601 385.8 601C343 601 300 601 257.2 601C214.3 601 171.7 601 128.8 601C86 601 43 601 21.5 601L0 601Z" fill="#329f5b"></path></svg>