<svg id="visual" viewBox="0 0 900 600" width="900" height="600" xmlns="http://www.w3.org/2000/svg" xmlns:xlink="http://www.w3.org/1999/xlink" version="1.1"><rect x="0" y="0" width="900" height="600" fill="#F49E12"></rect><path d="M0 400L21.5 400.5C43 401 86 402 128.8 409.3C171.7 416.7 214.3 430.3 257.2 431.3C300 432.3 343 420.7 385.8 418.5C428.7 416.3 471.3 423.7 514.2 424.2C557 424.7 600 418.3 642.8 414.8C685.7 411.3 728.3 410.7 771.2 413.3C814 416 857 422 878.5 425L900 428L900 601L878.5 601C857 601 814 601 771.2 601C728.3 601 685.7 601 642.8 601C600 601 557 601 514.2 601C471.3 601 428.7 601 385.8 601C343 601 300 601 257.2 601C214.3 601 171.7 601 128.8 601C86 601 43 601 21.5 601L0 601Z" fill="#f49e12"></path><path d="M0 480L21.5 478.3C43 476.7 86 473.3 128.8 467.2C171.7 461 214.3 452 257.2 452.2C300 452.3 343 461.7 385.8 464C428.7 466.3 471.3 461.7 514.2 463C557 464.3 600 471.7 642.8 471.2C685.7 470.7 728.3 462.3 771.2 461.7C814 461 857 468 878.5 471.5L900 475L900 601L878.5 601C857 601 814 601 771.2 601C728.3 601 685.7 601 642.8 601C600 601 557 601 514.2 601C471.3 601 428.7 601 385.8 601C343 601 300 601 257.2 601C214.3 601 171.7 601 128.8 601C86 601 43 601 21.5 601L0 601Z" fill="#c3a600"></path><path d="M0 487L21.5 491C43 495 86 503 128.8 506.8C171.7 510.7 214.3 510.3 257.2 510.3C300 510.3 343 510.7 385.8 504.7C428.7 498.7 471.3 486.3 514.2 479.8C557 473.3 600 472.7 642.8 475.5C685.7 478.3 728.3 484.7 771.2 488.8C814 493 857 495 878.5 496L900 497L900 601L878.5 601C857 601 814 601 771.2 601C728.3 601 685.7 601 642.8 601C600 601 557 601 514.2 601C471.3 601 428.7 601 385.8 601C343 601 300 601 257.2 601C214.3 601 171.7 601 128.8 601C86 601 43 601 21.5 601L0 601Z" fill="#93a821"></path><path d="M0 524L21.5 524C43 524 86 524 128.8 525C171.7 526 214.3 528 257.2 530.2C300 532.3 343 534.7 385.8 533.8C428.7 533 471.3 529 514.2 527.3C557 525.7 600 526.3 642.8 523.3C685.7 520.3 728.3 513.7 771.2 515C814 516.3 857 525.7 878.5 530.3L900 535L900 601L878.5 601C857 601 814 601 771.2 601C728.3 601 685.7 601 642.8 601C600 601 557 601 514.2 601C471.3 601 428.7 601 385.8 601C343 601 300 601 257.2 601C214.3 601 171.7 601 128.8 601C86 601 43 601 21.5 601L0 601Z" fill="#65a540"></path><path d="M0 565L21.5 566.2C43 567.3 86 569.7 128.8 567.8C171.7 566 214.3 560 257.2 560.2C300 560.3 343 566.7 385.8 570C428.7 573.3 471.3 573.7 514.2 573.2C557 572.7 600 571.3 642.8 569.2C685.7 567 728.3 564 771.2 562.5C814 561 857 561 878.5 561L900 561L900 601L878.5 601C857 601 814 601 771.2 601C728.3 601 685.7 601 642.8 601C600 601 557 601 514.2 601C471.3 601 428.7 601 385.8 601C343 601 300 601 257.2 601C214.3 601 171.7 601 128.8 601C86 601 43 601 21.5 601L0 601Z" fill="#329f5b"></path></svg>