<svg id="visual" viewBox="0 0 900 600" width="900" height="600" xmlns="http://www.w3.org/2000/svg" xmlns:xlink="http://www.w3.org/1999/xlink" version="1.1"><rect x="0" y="0" width="900" height="600" fill="#F49E12"></rect><path d="M0 442L21.5 445.5C43 449 86 456 128.8 467.2C171.7 478.3 214.3 493.7 257.2 492.2C300 490.7 343 472.3 385.8 464C428.7 455.7 471.3 457.3 514.2 451.5C557 445.7 600 432.3 642.8 424.2C685.7 416 728.3 413 771.2 426.2C814 439.3 857 468.7 878.5 483.3L900 498L900 601L878.5 601C857 601 814 601 771.2 601C728.3 601 685.7 601 642.8 601C600 601 557 601 514.2 601C471.3 601 428.7 601 385.8 601C343 601 300 601 257.2 601C214.3 601 171.7 601 128.8 601C86 601 43 601 21.5 601L0 601Z" fill="#329f5b" stroke-linecap="round" stroke-linejoin="miter"></path></svg>