<svg id="visual" viewBox="0 0 900 675" width="900" height="675" xmlns="http://www.w3.org/2000/svg" xmlns:xlink="http://www.w3.org/1999/xlink" version="1.1"><rect x="0" y="0" width="900" height="675" fill="#96E6B3"></rect><path d="M0 533L21.5 536C43 539 86 545 128.8 555C171.7 565 214.3 579 257.2 577.8C300 576.7 343 560.3 385.8 552.8C428.7 545.3 471.3 546.7 514.2 541.3C557 536 600 524 642.8 516.7C685.7 509.3 728.3 506.7 771.2 518.5C814 530.3 857 556.7 878.5 569.8L900 583L900 676L878.5 676C857 676 814 676 771.2 676C728.3 676 685.7 676 642.8 676C600 676 557 676 514.2 676C471.3 676 428.7 676 385.8 676C343 676 300 676 257.2 676C214.3 676 171.7 676 128.8 676C86 676 43 676 21.5 676L0 676Z" fill="#C4B2BC" stroke-linecap="round" stroke-linejoin="miter"></path></svg>